<?xml version="1.0" encoding="UTF-8"?>
<!DOCTYPE svg PUBLIC "-//W3C//DTD SVG 1.1//EN" "http://www.w3.org/Graphics/SVG/1.1/DTD/svg11.dtd">
<!-- Creator: CorelDRAW X8 -->
<svg xmlns="http://www.w3.org/2000/svg" xml:space="preserve" width="118.533mm" height="49.1066mm" version="1.1" style="shape-rendering:geometricPrecision; text-rendering:geometricPrecision; image-rendering:optimizeQuality; fill-rule:evenodd; clip-rule:evenodd"
viewBox="0 0 11853 4911"
 xmlns:xlink="http://www.w3.org/1999/xlink">
 <defs>
  <style type="text/css">
   <![CDATA[
    .fil1 {fill:#FEFEFE}
    .fil2 {fill:#ED2F59}
    .fil0 {fill:#FEFEFE;fill-rule:nonzero}
   ]]>
  </style>
 </defs>
 <g id="Camada_x0020_1">
  <metadata id="CorelCorpID_0Corel-Layer"/>
  <g id="_2244135621008">
   <path class="fil0" d="M11470 117c27,0 53,7 78,21 26,13 46,33 60,58 14,26 21,53 21,80 0,28 -7,54 -21,80 -14,25 -33,45 -59,58 -25,15 -51,22 -79,22 -28,0 -54,-7 -79,-22 -25,-13 -45,-33 -59,-58 -14,-26 -21,-52 -21,-80 0,-27 7,-54 21,-80 14,-25 34,-45 60,-58 25,-14 51,-21 78,-21zm0 26c-22,0 -44,6 -65,18 -21,11 -38,28 -50,49 -12,21 -18,43 -18,66 0,23 6,45 18,66 11,21 28,38 49,50 21,11 43,17 66,17 23,0 45,-6 66,-17 21,-12 38,-29 49,-50 12,-21 18,-43 18,-66 0,-23 -6,-45 -18,-66 -12,-21 -28,-38 -50,-49 -21,-12 -43,-18 -65,-18zm-70 221l0 -171 59 0c20,0 35,2 44,5 9,3 16,9 21,16 6,8 8,17 8,26 0,12 -4,23 -13,32 -9,9 -21,15 -36,16 6,2 11,5 15,9 7,7 15,18 25,34l21 33 -34 0 -15 -27c-12,-21 -21,-34 -29,-40 -5,-3 -12,-5 -22,-5l-16 0 0 72 -28 0zm28 -96l33 0c16,0 27,-3 33,-7 6,-5 9,-11 9,-19 0,-5 -1,-10 -4,-14 -3,-4 -7,-7 -12,-9 -5,-2 -14,-3 -28,-3l-31 0 0 52z"/>
   <path class="fil1" d="M5414 3001c-83,207 -280,342 -527,342l-501 0c-142,0 -277,-50 -384,-140l-116 -71 -1009 -586c-6,-3 -11,-7 -18,-11l-74 -48 0 307c0,339 -244,542 -569,542l-529 0c-91,0 -176,-16 -251,-46 -73,30 -154,46 -241,46l-523 0c-331,0 -578,-235 -578,-569l0 -2064c0,-333 247,-569 578,-569l523 0c90,0 173,17 248,49 73,-32 155,-49 244,-49l501 0c143,0 281,52 388,144l751 482c3,2 6,4 8,6l454 306 0 -401c0,-339 244,-542 569,-542l529 0c97,0 188,18 267,53 76,-31 161,-48 249,-48l461 0c336,0 616,242 616,588l0 946c0,15 0,43 3,66 18,2 37,3 48,3 125,0 234,-29 337,-100 319,-217 593,-872 799,-1209 113,-184 309,-294 525,-294l511 0c106,0 207,26 296,75 82,-48 176,-75 275,-75 260,0 521,0 781,0 1632,1 2163,1867 632,2501 -224,93 -474,162 -711,214 -10,2 -19,4 -30,5 -126,18 -252,32 -378,48 -30,3 -84,8 -116,17 -47,40 -127,149 -170,205l-825 1422c-6,10 -12,18 -18,27 -103,140 -263,221 -436,221l-934 0c-199,0 -379,-107 -475,-281 -96,-176 -88,-389 22,-557l444 -673c-163,35 -338,53 -529,53 -416,0 -810,-117 -1117,-335z"/>
   <path class="fil2" d="M1195 2905l-523 0c-97,0 -147,-47 -147,-138l0 -2064c0,-91 50,-138 147,-138l523 0c97,0 146,47 146,138l0 2064c0,91 -50,138 -146,138zm2913 -143l-1014 -589 -473 -305c-158,-96 -267,-45 -267,151l0 748 0 27c0,91 -47,111 -138,111l-529 0c-91,0 -138,-20 -138,-111l0 -27 0 -2064c0,-91 47,-138 138,-138l501 0c48,0 92,21 122,55l784 503 0 0 858 581c159,95 268,-50 268,-246l0 -105c0,-24 0,-48 0,-72l0 -578 0 -5 0 -28c0,-91 47,-110 138,-110l529 0c91,0 138,19 138,110l0 28 0 2076c0,91 -47,138 -138,138l-501 0c-49,0 -92,-21 -123,-54l-155 -96zm2423 143c1341,0 1761,-1159 2327,-2058 37,-58 39,-126 6,-187 -34,-60 -93,-95 -161,-95l-511 0c-66,0 -123,32 -157,88 -389,635 -655,1515 -1504,1515 -401,0 -483,-249 -483,-500l0 -946c0,-102 -82,-157 -184,-157l-461 0c-101,0 -184,55 -184,157l0 1049c0,709 585,1134 1312,1134zm2535 -1799c232,0 465,0 697,1 549,0 475,566 -181,672 -1102,178 -958,24 -1442,647 -2,3 -4,6 -6,9l-1206 1759c-23,33 -24,75 -4,111 20,36 55,57 96,57l1044 0c35,0 67,-16 88,-44l774 -1438c1,-2 3,-4 4,-6 345,-444 287,-351 955,-447 216,-47 456,-115 637,-190 1086,-450 705,-1671 -468,-1672 -260,0 -520,0 -780,0 -38,0 -71,18 -92,50l-208 321c-22,35 -24,76 -4,112 19,36 55,58 96,58z"/>
  </g>
 </g>
</svg>
